<svg xmlns="http://www.w3.org/2000/svg" viewBox="0 0 1200 800" role="img" aria-labelledby="title desc">
  <title id="title">River bend</title>
  <desc id="desc">A stylized river bend with trees and a path.</desc>
  <rect width="1200" height="800" fill="#d5e7d8"/>
  <path d="M0 514c163-130 320-162 471-96 112 49 220 45 324-11 104-57 239-64 405-22v415H0z" fill="#3f7a5f"/>
  <path d="M0 644c144-110 291-152 441-126 128 23 222 78 282 166 47 69 120 108 218 116H0z" fill="#5c8fa5"/>
  <path d="M0 718c146-70 286-92 419-65 115 23 210 72 285 147H0z" fill="#89b8ca"/>
  <path d="M861 800c-68-95-82-181-41-260 40-79 127-140 260-184-111 78-174 156-188 234-14 77 18 147 96 210z" fill="#d7c68a"/>
  <g fill="#22543d">
    <circle cx="167" cy="402" r="52"/>
    <circle cx="266" cy="360" r="64"/>
    <circle cx="1002" cy="333" r="70"/>
    <circle cx="1090" cy="391" r="58"/>
  </g>
</svg>
