<svg xmlns="http://www.w3.org/2000/svg" viewBox="0 0 1200 800" role="img" aria-labelledby="title desc">
  <title id="title">Harbor overlook</title>
  <desc id="desc">A stylized coastal overlook with a harbor below.</desc>
  <rect width="1200" height="800" fill="#b7d6df"/>
  <path d="M0 484c151-76 300-91 447-45 158 50 301 23 429-80 99-79 207-105 324-78v519H0z" fill="#326f6a"/>
  <path d="M0 568c122-55 246-60 372-16 128 45 266 30 414-45 147-75 285-80 414-16v309H0z" fill="#e9d8a6"/>
  <path d="M0 650c133-38 286-35 458 9 212 53 459 34 742-58v199H0z" fill="#466d83"/>
  <circle cx="930" cy="150" r="58" fill="#f59e0b"/>
  <path d="M174 602h207l-42-68H215z" fill="#7f5539"/>
  <path d="M620 569l208-57 28 98-208 57z" fill="#ffffff" opacity=".75"/>
</svg>
